<?xml version="1.0" encoding="utf-8"?>
<!-- Generator: Adobe Illustrator 25.2.1, SVG Export Plug-In . SVG Version: 6.00 Build 0)  -->
<svg version="1.1" id="Layer_1" xmlns="http://www.w3.org/2000/svg" xmlns:xlink="http://www.w3.org/1999/xlink" x="0px" y="0px"
	 viewBox="0 0 464.7 504.3" style="enable-background:new 0 0 464.7 504.3;" xml:space="preserve">
<style type="text/css">
	.st0{fill:none;stroke:#88715A;stroke-width:5;stroke-miterlimit:10;}
	.st1{fill:#88715A;}
	.st2{fill:none;stroke:#88715A;stroke-miterlimit:10;}
	.st3{enable-background:new    ;}
</style>
<path class="st0" d="M444.1,350.6V153.7c0-14.5-7.7-27.8-20.3-35.1L253.4,20.3c-12.5-7.2-28-7.2-40.5,0L42.4,118.7
	c-12.5,7.2-20.3,20.6-20.3,35.1v196.8c0,14.5,7.7,27.8,20.3,35.1L212.9,484c12.5,7.2,28,7.2,40.5,0l170.4-98.4
	C436.4,378.4,444.1,365,444.1,350.6z"/>
<g>
	<path class="st1" d="M44.2,208.2h13.7l44.9,58.1v-58.1h14.6v84h-12.3l-46.2-59.8v59.8H44.2V208.2z"/>
	<path class="st1" d="M139.9,208.2h14.6v84h-14.6V208.2z"/>
	<path class="st1" d="M197.7,221.8h-26.6v-13.7h68.2v13.7h-26.6v70.3h-14.9L197.7,221.8L197.7,221.8z"/>
	<path class="st1" d="M254.8,208.2h37.4c5.3,0,10,0.7,14,2.2c4.1,1.5,7.5,3.5,10.2,6.2c2.2,2.3,4,5,5.2,8s1.8,6.4,1.8,10.1v0.2
		c0,3.4-0.5,6.5-1.5,9.3s-2.4,5.2-4.1,7.3c-1.8,2.1-3.9,3.9-6.3,5.4s-5.1,2.6-8.1,3.4l22.7,31.8h-17.4L288,262.9h-0.2h-18.3v29.3
		h-14.6L254.8,208.2L254.8,208.2z M291.2,249.8c5.3,0,9.5-1.3,12.6-3.8s4.7-6,4.7-10.3v-0.2c0-4.6-1.5-8.1-4.6-10.4
		s-7.3-3.6-12.9-3.6h-21.5v28.3H291.2z"/>
	<path class="st1" d="M381.7,293.6c-6.5,0-12.4-1.1-17.8-3.4s-10-5.4-13.8-9.3s-6.8-8.5-9-13.7s-3.2-10.8-3.2-16.7v-0.2
		c0-5.9,1.1-11.5,3.2-16.7c2.2-5.2,5.2-9.8,9.1-13.8s8.6-7.1,13.9-9.4c5.4-2.3,11.3-3.5,17.8-3.5s12.4,1.1,17.8,3.4
		c5.4,2.3,10,5.4,13.8,9.3c3.8,3.9,6.8,8.5,9,13.7s3.2,10.8,3.2,16.7v0.2c0,5.9-1.1,11.5-3.2,16.7c-2.2,5.2-5.2,9.8-9.1,13.8
		s-8.6,7.1-13.9,9.4C394.1,292.4,388.2,293.6,381.7,293.6z M381.9,280c4.1,0,7.9-0.8,11.4-2.3c3.5-1.6,6.4-3.7,8.9-6.4
		c2.5-2.7,4.4-5.8,5.8-9.4s2.1-7.4,2.1-11.5v-0.2c0-4.1-0.7-7.9-2.1-11.6c-1.4-3.6-3.3-6.8-5.9-9.5c-2.5-2.7-5.5-4.8-9-6.4
		c-3.5-1.6-7.3-2.4-11.5-2.4c-4.1,0-7.9,0.8-11.4,2.3s-6.4,3.7-8.9,6.4s-4.4,5.8-5.8,9.4c-1.4,3.6-2.1,7.4-2.1,11.5v0.2
		c0,4.1,0.7,7.9,2.1,11.6c1.4,3.6,3.3,6.8,5.9,9.5c2.5,2.7,5.5,4.8,9,6.4C374,279.2,377.8,280,381.9,280z"/>
</g>
<g>
	<g>
		<path class="st1" d="M242,69.2c11.2,0.2,20.3,2.6,28.2,8.6c0.8,0.6,1.5,1.2,2.3,1.9c1.1,1,1.7,2.2,1.3,3.7c-0.4,1.6-1.5,2.3-3,2.8
			c-4,1.2-8.1,2.3-11.9,3.8c-11.1,4.4-20.4,11.4-28.4,20.2c-10.8,11.9-23.9,19.6-39.8,22.5c-0.7,0.1-1.4,0.3-2.1,0.4
			c-2.3,0.3-3.8-0.7-4.4-2.9c-2.3-7.4-2.1-14.9,0.3-22.3c3.1-9.2,8.9-16.6,16.4-22.6c9.9-7.9,21.1-13.2,33.6-15.3
			C237.3,69.6,240.4,69.4,242,69.2z"/>
		<path class="st1" d="M224,156.3c-10.9-0.1-20-2.6-27.9-8.6c-0.7-0.6-1.5-1.2-2.2-1.8c-1.2-1-1.7-2.2-1.3-3.8s1.6-2.3,3.1-2.8
			c4-1.2,8-2.3,11.8-3.8c11.1-4.4,20.5-11.4,28.5-20.3c10.8-12,24.1-19.6,39.9-22.5c4.5-0.8,5.7-0.1,6.8,4.4
			c2.8,11.4,0.3,21.8-6.2,31.3c-5.5,8.1-12.9,14.1-21.4,18.8c-7.7,4.3-15.8,7.3-24.5,8.5C228,156,225.4,156.1,224,156.3z"/>
	</g>
</g>
<line class="st2" x1="42" y1="184.4" x2="424.2" y2="184.4"/>
<line class="st2" x1="42" y1="312.4" x2="424.2" y2="312.4"/>
<g class="st3">
	<path class="st1" d="M165.9,347.6h1.3v9.6c0.4-1.2,0.9-2.5,1.6-3.7c0.7-1.2,1.6-2.3,2.6-3.3c1-1,2.2-1.8,3.6-2.4
		c1.4-0.6,2.9-0.9,4.6-0.9v1.2h-0.3c-1.9,0-3.6,0.5-5,1.4c-1.5,0.9-2.7,2.1-3.8,3.4c-1,1.4-1.8,2.9-2.4,4.5
		c-0.6,1.6-0.8,3.2-0.8,4.6v15.5h-1.3V347.6z"/>
	<path class="st1" d="M198.9,378.3c-2,0-4-0.4-5.8-1.1c-1.8-0.7-3.4-1.8-4.8-3.2c-1.4-1.4-2.4-3-3.2-5c-0.8-1.9-1.2-4.1-1.2-6.5
		v-0.1c0-2.2,0.4-4.3,1.1-6.2c0.7-1.9,1.7-3.6,3-5c1.3-1.4,2.8-2.5,4.6-3.3c1.8-0.8,3.7-1.2,5.8-1.2c2.4,0,4.4,0.5,6.1,1.4
		c1.7,0.9,3.2,2.2,4.3,3.7c1.1,1.5,2,3.2,2.5,5.1s0.8,3.8,0.8,5.6v0.2h-26.9c0,2.2,0.4,4.1,1.2,5.8c0.8,1.7,1.8,3.2,3,4.5
		c1.2,1.2,2.7,2.2,4.3,2.9c1.6,0.7,3.4,1,5.2,1c2.3,0,4.5-0.6,6.4-1.8c1.9-1.2,3.5-2.6,4.7-4.3l1,0.7c-1.3,1.9-3,3.4-5.1,4.7
		C204,377.7,201.6,378.3,198.9,378.3z M210.8,361.8c-0.1-1.7-0.4-3.4-1-5c-0.6-1.6-1.4-3.1-2.4-4.4c-1-1.3-2.3-2.3-3.9-3.1
		c-1.5-0.8-3.3-1.2-5.3-1.2c-1.9,0-3.6,0.4-5.2,1c-1.5,0.7-2.9,1.7-4,2.9c-1.1,1.2-2,2.7-2.7,4.3c-0.7,1.7-1,3.5-1.1,5.5H210.8z"/>
	<path class="st1" d="M229.7,378.3c-1.5,0-2.9-0.2-4.2-0.6c-1.3-0.4-2.5-1-3.6-1.7c-1-0.8-1.9-1.7-2.5-2.8c-0.6-1.1-0.9-2.4-0.9-3.9
		v-0.1c0-1.6,0.3-2.9,1-4.1c0.7-1.2,1.6-2.2,2.8-3c1.2-0.8,2.6-1.4,4.2-1.8c1.6-0.4,3.4-0.6,5.2-0.6c2.1,0,4.1,0.2,6.1,0.5
		s3.7,0.8,5.2,1.3V359c0-3.6-1-6.3-3-8.1s-4.8-2.6-8.3-2.6c-1.9,0-3.6,0.2-5.2,0.7c-1.6,0.5-3.2,1.1-4.7,1.8l-0.5-1.1
		c1.7-0.8,3.4-1.4,5-1.9c1.7-0.5,3.5-0.7,5.5-0.7c4.2,0,7.4,1.1,9.6,3.3c0.9,0.9,1.6,2.1,2.2,3.5c0.5,1.4,0.8,3.1,0.8,5v18.7h-1.3
		l0.1-7.1c-0.3,0.9-0.8,1.8-1.6,2.7c-0.7,0.9-1.6,1.8-2.8,2.5c-1.1,0.8-2.4,1.4-4,1.9C233.3,378.1,231.6,378.3,229.7,378.3z
		 M229.7,377.1c2,0,3.8-0.3,5.4-0.9c1.6-0.6,3-1.4,4.2-2.4c1.2-1,2.1-2.1,2.7-3.4c0.6-1.3,1-2.5,1-3.9v-3.8
		c-1.6-0.6-3.3-1.1-5.1-1.4c-1.8-0.3-3.8-0.5-6.1-0.5c-1.7,0-3.3,0.2-4.7,0.5c-1.5,0.3-2.8,0.9-3.9,1.6c-1.1,0.7-2,1.6-2.6,2.6
		s-0.9,2.2-0.9,3.6v0.1c0,1.3,0.3,2.5,0.8,3.5c0.5,1,1.3,1.8,2.2,2.5c0.9,0.7,2,1.2,3.2,1.5C227.2,377,228.4,377.1,229.7,377.1z"/>
	<path class="st1" d="M268.2,378.3c-2.2,0-4.2-0.4-6-1.3c-1.9-0.8-3.5-2-4.9-3.4s-2.5-3.1-3.2-5c-0.8-1.9-1.2-3.9-1.2-6v-0.1
		c0-2.1,0.4-4.1,1.2-6c0.8-1.9,1.9-3.6,3.2-5c1.4-1.4,3-2.5,4.9-3.4s3.9-1.3,6.1-1.3c2.8,0,5.1,0.5,6.9,1.6c1.9,1.1,3.5,2.4,5.1,4
		l-0.9,0.8c-1.4-1.4-2.9-2.7-4.7-3.7c-1.8-1-3.9-1.5-6.5-1.5c-2,0-3.8,0.4-5.5,1.1s-3.2,1.8-4.4,3.1c-1.3,1.3-2.2,2.8-2.9,4.6
		c-0.7,1.7-1,3.6-1,5.5v0.1c0,2,0.4,3.8,1.1,5.6c0.7,1.8,1.7,3.3,3,4.6c1.3,1.3,2.8,2.4,4.5,3.1c1.7,0.8,3.6,1.2,5.5,1.2
		c2.6,0,4.7-0.5,6.6-1.6c1.8-1.1,3.4-2.4,4.7-3.9l0.9,0.8c-1.4,1.6-3.1,3-5.1,4.2C273.3,377.8,271,378.3,268.2,378.3z"/>
	<path class="st1" d="M298,378.2c-2.5,0-4.4-0.7-5.8-2.1c-1.3-1.4-2-3.5-2-6.1v-21.2h-4.7v-1.1h4.7v-10.4h1.3v10.4h11.1v1.1h-11.1
		v21.1c0,2.3,0.5,4,1.6,5.3c1.1,1.2,2.7,1.9,4.8,1.9c1.6,0,3.1-0.4,4.6-1.1v1.3C301.1,377.8,299.6,378.2,298,378.2z"/>
</g>
</svg>
